<svg xmlns="http://www.w3.org/2000/svg" xmlns:xlink="http://www.w3.org/1999/xlink" width="36" height="36" viewBox="0 0 36 36">
  <defs>
    <linearGradient id="123-a" x1="50%" x2="50%" y1="0%" y2="100%">
      <stop offset="0%" stop-color="#414141"/>
      <stop offset="100%" stop-color="#242424"/>
    </linearGradient>
    <path id="123-b" d="M3.15932371,0 L32.8406763,0 C34.5855226,-7.64612276e-16 36,1.4144774 36,3.15932371 L36,20.8406763 C36,22.5855226 34.5855226,24 32.8406763,24 L21,24 L21,24 L3.15932371,24 C1.4144774,24 2.43412809e-15,22.5855226 0,20.8406763 L0,3.15932371 C-1.10186046e-15,1.4144774 1.4144774,7.64612276e-16 3.15932371,0 Z"/>
    <linearGradient id="123-c" x1="50%" x2="50%" y1="2.602%" y2="100%">
      <stop offset="0%" stop-color="#1E1E1E"/>
      <stop offset="100%" stop-color="#292929"/>
    </linearGradient>
    <path id="123-d" d="M5.0531079,24 L30.9468921,24 C31.5285075,24 32,24.4714925 32,25.0531079 L32,32 L32,32 L4,32 L4,25.0531079 C4,24.4714925 4.47149247,24 5.0531079,24 Z"/>
    <filter id="123-e" width="103.6%" height="112.5%" x="-1.8%" y="-6.2%" filterUnits="objectBoundingBox">
      <feOffset dy="1" in="SourceAlpha" result="shadowOffsetInner1"/>
      <feComposite in="shadowOffsetInner1" in2="SourceAlpha" k2="-1" k3="1" operator="arithmetic" result="shadowInnerInner1"/>
      <feColorMatrix in="shadowInnerInner1" values="0 0 0 0 0   0 0 0 0 0   0 0 0 0 0  0 0 0 0.12 0"/>
    </filter>
    <linearGradient id="123-f" x1="13.183%" x2="50%" y1="12.219%" y2="50%">
      <stop offset="0%" stop-color="#E7EDF4"/>
      <stop offset="100%" stop-color="#DADADB"/>
    </linearGradient>
    <ellipse id="123-h" cx="29.763" cy="14.755" rx="1" ry="1"/>
    <filter id="123-g" width="152.8%" height="201.9%" x="-26.4%" y="-25.5%" filterUnits="objectBoundingBox">
      <feOffset dy="1" in="SourceAlpha" result="shadowOffsetOuter1"/>
      <feColorMatrix in="shadowOffsetOuter1" values="0 0 0 0 0   0 0 0 0 0   0 0 0 0 0  0 0 0 0.15 0"/>
    </filter>
    <filter id="123-i" width="100%" height="151%" x="0%" y="0%" filterUnits="objectBoundingBox">
      <feOffset in="SourceAlpha" result="shadowOffsetInner1"/>
      <feComposite in="shadowOffsetInner1" in2="SourceAlpha" k2="-1" k3="1" operator="arithmetic" result="shadowInnerInner1"/>
      <feColorMatrix in="shadowInnerInner1" values="0 0 0 0 1   0 0 0 0 1   0 0 0 0 1  0 0 0 0.121284965 0"/>
    </filter>
    <ellipse id="123-k" cx="32.502" cy="14.755" rx="1" ry="1"/>
    <filter id="123-j" width="152.8%" height="201.9%" x="-26.4%" y="-25.5%" filterUnits="objectBoundingBox">
      <feOffset dy="1" in="SourceAlpha" result="shadowOffsetOuter1"/>
      <feColorMatrix in="shadowOffsetOuter1" values="0 0 0 0 0   0 0 0 0 0   0 0 0 0 0  0 0 0 0.15 0"/>
    </filter>
    <filter id="123-l" width="100%" height="151%" x="0%" y="0%" filterUnits="objectBoundingBox">
      <feOffset in="SourceAlpha" result="shadowOffsetInner1"/>
      <feComposite in="shadowOffsetInner1" in2="SourceAlpha" k2="-1" k3="1" operator="arithmetic" result="shadowInnerInner1"/>
      <feColorMatrix in="shadowInnerInner1" values="0 0 0 0 1   0 0 0 0 1   0 0 0 0 1  0 0 0 0.121284965 0"/>
    </filter>
    <ellipse id="123-n" cx="27.025" cy="14.755" rx="1" ry="1"/>
    <filter id="123-m" width="152.8%" height="201.9%" x="-26.4%" y="-25.5%" filterUnits="objectBoundingBox">
      <feOffset dy="1" in="SourceAlpha" result="shadowOffsetOuter1"/>
      <feColorMatrix in="shadowOffsetOuter1" values="0 0 0 0 0   0 0 0 0 0   0 0 0 0 0  0 0 0 0.15 0"/>
    </filter>
    <filter id="123-o" width="100%" height="151%" x="0%" y="0%" filterUnits="objectBoundingBox">
      <feOffset in="SourceAlpha" result="shadowOffsetInner1"/>
      <feComposite in="shadowOffsetInner1" in2="SourceAlpha" k2="-1" k3="1" operator="arithmetic" result="shadowInnerInner1"/>
      <feColorMatrix in="shadowInnerInner1" values="0 0 0 0 1   0 0 0 0 1   0 0 0 0 1  0 0 0 0.121284965 0"/>
    </filter>
  </defs>
  <g fill="none" fill-rule="evenodd">
    <rect width="22" height="16" x="7" fill="#C7C7C7" rx="1.053"/>
    <use fill="url(#123-a)" transform="translate(0 8)" xlink:href="#123-b"/>
    <use fill="url(#123-c)" xlink:href="#123-d"/>
    <use fill="#000" filter="url(#123-e)" xlink:href="#123-d"/>
    <g transform="translate(7 24)">
      <path fill="#B8B8B8" d="M0,0 L22,0 L22,8 L18,12 L1.0531079,12 C0.471492468,12 -1.9271741e-15,11.5285075 0,10.9468921 L0,0 L0,0 Z"/>
      <path fill="url(#123-f)" d="M18,9.0531079 L18,12 L18,12 L22,8 L19.0531079,8 C18.4714925,8 18,8.47149247 18,9.0531079 Z"/>
    </g>
    <use fill="#000" filter="url(#123-g)" xlink:href="#123-h"/>
    <use fill="#1FABFF" xlink:href="#123-h"/>
    <use fill="#000" filter="url(#123-i)" xlink:href="#123-h"/>
    <use fill="#000" filter="url(#123-j)" xlink:href="#123-k"/>
    <use fill="#F7C65C" xlink:href="#123-k"/>
    <use fill="#000" filter="url(#123-l)" xlink:href="#123-k"/>
    <use fill="#000" filter="url(#123-m)" xlink:href="#123-n"/>
    <use fill="#CC584C" xlink:href="#123-n"/>
    <use fill="#000" filter="url(#123-o)" xlink:href="#123-n"/>
  </g>
</svg>
