<svg xmlns="http://www.w3.org/2000/svg" xmlns:xlink="http://www.w3.org/1999/xlink" width="44" height="40" viewBox="0 0 44 40">
  <defs>
    <linearGradient id="maxthon-browser-a" x1="50%" x2="50%" y1="0%" y2="100%">
      <stop offset="0%" stop-color="#414141"/>
      <stop offset="100%" stop-color="#242424"/>
    </linearGradient>
    <path id="maxthon-browser-b" d="M3.15932371,0 L32.8406763,0 C34.5855226,-7.64612276e-16 36,1.4144774 36,3.15932371 L36,20.8406763 C36,22.5855226 34.5855226,24 32.8406763,24 L21,24 L21,24 L3.15932371,24 C1.4144774,24 2.43412809e-15,22.5855226 0,20.8406763 L0,3.15932371 C-1.10186046e-15,1.4144774 1.4144774,7.64612276e-16 3.15932371,0 Z"/>
    <linearGradient id="maxthon-browser-c" x1="50%" x2="50%" y1="2.602%" y2="100%">
      <stop offset="0%" stop-color="#1E1E1E"/>
      <stop offset="100%" stop-color="#292929"/>
    </linearGradient>
    <path id="maxthon-browser-d" d="M5.0531079,24 L30.9468921,24 C31.5285075,24 32,24.4714925 32,25.0531079 L32,32 L32,32 L4,32 L4,25.0531079 C4,24.4714925 4.47149247,24 5.0531079,24 Z"/>
    <filter id="maxthon-browser-e" width="103.6%" height="112.5%" x="-1.8%" y="-6.2%" filterUnits="objectBoundingBox">
      <feOffset dy="1" in="SourceAlpha" result="shadowOffsetInner1"/>
      <feComposite in="shadowOffsetInner1" in2="SourceAlpha" k2="-1" k3="1" operator="arithmetic" result="shadowInnerInner1"/>
      <feColorMatrix in="shadowInnerInner1" values="0 0 0 0 0   0 0 0 0 0   0 0 0 0 0  0 0 0 0.12 0"/>
    </filter>
    <linearGradient id="maxthon-browser-f" x1="13.183%" x2="50%" y1="12.219%" y2="50%">
      <stop offset="0%" stop-color="#E7EDF4"/>
      <stop offset="100%" stop-color="#DADADB"/>
    </linearGradient>
    <ellipse id="maxthon-browser-h" cx="29.763" cy="14.755" rx="1" ry="1"/>
    <filter id="maxthon-browser-g" width="152.8%" height="201.9%" x="-26.4%" y="-25.5%" filterUnits="objectBoundingBox">
      <feOffset dy="1" in="SourceAlpha" result="shadowOffsetOuter1"/>
      <feColorMatrix in="shadowOffsetOuter1" values="0 0 0 0 0   0 0 0 0 0   0 0 0 0 0  0 0 0 0.15 0"/>
    </filter>
    <filter id="maxthon-browser-i" width="100%" height="151%" x="0%" y="0%" filterUnits="objectBoundingBox">
      <feOffset in="SourceAlpha" result="shadowOffsetInner1"/>
      <feComposite in="shadowOffsetInner1" in2="SourceAlpha" k2="-1" k3="1" operator="arithmetic" result="shadowInnerInner1"/>
      <feColorMatrix in="shadowInnerInner1" values="0 0 0 0 1   0 0 0 0 1   0 0 0 0 1  0 0 0 0.121284965 0"/>
    </filter>
    <ellipse id="maxthon-browser-k" cx="32.502" cy="14.755" rx="1" ry="1"/>
    <filter id="maxthon-browser-j" width="152.8%" height="201.9%" x="-26.4%" y="-25.5%" filterUnits="objectBoundingBox">
      <feOffset dy="1" in="SourceAlpha" result="shadowOffsetOuter1"/>
      <feColorMatrix in="shadowOffsetOuter1" values="0 0 0 0 0   0 0 0 0 0   0 0 0 0 0  0 0 0 0.15 0"/>
    </filter>
    <filter id="maxthon-browser-l" width="100%" height="151%" x="0%" y="0%" filterUnits="objectBoundingBox">
      <feOffset in="SourceAlpha" result="shadowOffsetInner1"/>
      <feComposite in="shadowOffsetInner1" in2="SourceAlpha" k2="-1" k3="1" operator="arithmetic" result="shadowInnerInner1"/>
      <feColorMatrix in="shadowInnerInner1" values="0 0 0 0 1   0 0 0 0 1   0 0 0 0 1  0 0 0 0.121284965 0"/>
    </filter>
    <ellipse id="maxthon-browser-n" cx="27.025" cy="14.755" rx="1" ry="1"/>
    <filter id="maxthon-browser-m" width="152.8%" height="201.9%" x="-26.4%" y="-25.5%" filterUnits="objectBoundingBox">
      <feOffset dy="1" in="SourceAlpha" result="shadowOffsetOuter1"/>
      <feColorMatrix in="shadowOffsetOuter1" values="0 0 0 0 0   0 0 0 0 0   0 0 0 0 0  0 0 0 0.15 0"/>
    </filter>
    <filter id="maxthon-browser-o" width="100%" height="151%" x="0%" y="0%" filterUnits="objectBoundingBox">
      <feOffset in="SourceAlpha" result="shadowOffsetInner1"/>
      <feComposite in="shadowOffsetInner1" in2="SourceAlpha" k2="-1" k3="1" operator="arithmetic" result="shadowInnerInner1"/>
      <feColorMatrix in="shadowInnerInner1" values="0 0 0 0 1   0 0 0 0 1   0 0 0 0 1  0 0 0 0.121284965 0"/>
    </filter>
    <linearGradient id="maxthon-browser-r" x1="50%" x2="50%" y1="0%" y2="100%">
      <stop offset="0%" stop-color="#55C600"/>
      <stop offset="100%" stop-color="#00C3B6"/>
    </linearGradient>
    <circle id="maxthon-browser-q" cx="10" cy="10" r="10"/>
    <filter id="maxthon-browser-p" width="155%" height="155%" x="-27.5%" y="-17.5%" filterUnits="objectBoundingBox">
      <feOffset dy="2" in="SourceAlpha" result="shadowOffsetOuter1"/>
      <feGaussianBlur in="shadowOffsetOuter1" result="shadowBlurOuter1" stdDeviation="1.5"/>
      <feColorMatrix in="shadowBlurOuter1" values="0 0 0 0 0   0 0 0 0 0.835294118   0 0 0 0 0.270588235  0 0 0 0.3 0"/>
    </filter>
  </defs>
  <g fill="none" fill-rule="evenodd" transform="translate(0 2)">
    <rect width="22" height="16" x="7" fill="#C7C7C7" rx="1.053"/>
    <use fill="url(#maxthon-browser-a)" transform="translate(0 8)" xlink:href="#maxthon-browser-b"/>
    <use fill="url(#maxthon-browser-c)" xlink:href="#maxthon-browser-d"/>
    <use fill="#000" filter="url(#maxthon-browser-e)" xlink:href="#maxthon-browser-d"/>
    <g transform="translate(7 24)">
      <path fill="#B8B8B8" d="M0,0 L22,0 L22,8 L18,12 L1.0531079,12 C0.471492468,12 -1.9271741e-15,11.5285075 0,10.9468921 L0,0 L0,0 Z"/>
      <path fill="url(#maxthon-browser-f)" d="M18,9.0531079 L18,12 L18,12 L22,8 L19.0531079,8 C18.4714925,8 18,8.47149247 18,9.0531079 Z"/>
    </g>
    <use fill="#000" filter="url(#maxthon-browser-g)" xlink:href="#maxthon-browser-h"/>
    <use fill="#1FABFF" xlink:href="#maxthon-browser-h"/>
    <use fill="#000" filter="url(#maxthon-browser-i)" xlink:href="#maxthon-browser-h"/>
    <use fill="#000" filter="url(#maxthon-browser-j)" xlink:href="#maxthon-browser-k"/>
    <use fill="#F7C65C" xlink:href="#maxthon-browser-k"/>
    <use fill="#000" filter="url(#maxthon-browser-l)" xlink:href="#maxthon-browser-k"/>
    <use fill="#000" filter="url(#maxthon-browser-m)" xlink:href="#maxthon-browser-n"/>
    <use fill="#CC584C" xlink:href="#maxthon-browser-n"/>
    <use fill="#000" filter="url(#maxthon-browser-o)" xlink:href="#maxthon-browser-n"/>
    <g transform="translate(24 16)">
      <use fill="#000" filter="url(#maxthon-browser-p)" xlink:href="#maxthon-browser-q"/>
      <use fill="url(#maxthon-browser-r)" xlink:href="#maxthon-browser-q"/>
      <polyline stroke="#FFF" stroke-linecap="round" stroke-linejoin="round" points="5.236 10.044 8.869 14.422 16.279 5.665"/>
    </g>
  </g>
</svg>
